<svg xmlns="http://www.w3.org/2000/svg" width="256" height="256" viewBox="0 0 256 256" fill="none">
  <defs>
    <linearGradient id="shell" x1="18" y1="18" x2="238" y2="238" gradientUnits="userSpaceOnUse">
      <stop stop-color="#36C9F6"/>
      <stop offset=".54" stop-color="#3975E8"/>
      <stop offset="1" stop-color="#7766E9"/>
    </linearGradient>
    <linearGradient id="rocket" x1="105" y1="90" x2="170" y2="165" gradientUnits="userSpaceOnUse">
      <stop stop-color="#FFFFFF"/>
      <stop offset="1" stop-color="#CBE8FF"/>
    </linearGradient>
    <linearGradient id="flame" x1="73" y1="166" x2="111" y2="189" gradientUnits="userSpaceOnUse">
      <stop stop-color="#73F0E8"/>
      <stop offset="1" stop-color="#3BA8F4"/>
    </linearGradient>
  </defs>
  <rect x="8" y="8" width="240" height="240" rx="56" fill="#071326"/>
  <rect x="10" y="10" width="236" height="236" rx="54" stroke="url(#shell)" stroke-width="4"/>
  <rect x="25" y="26" width="206" height="202" rx="36" fill="#10213D"/>
  <path d="M25 63C25 42.6 41.6 26 62 26h132c20.4 0 37 16.6 37 37v16H25V63Z" fill="#19385A"/>
  <path d="M25 79h206" stroke="#64C8F1" stroke-opacity=".55" stroke-width="3"/>
  <circle cx="53" cy="53" r="5" fill="#7AE3F5"/>
  <circle cx="72" cy="53" r="5" fill="#6BAEF7"/>
  <circle cx="91" cy="53" r="5" fill="#A79CF8"/>
  <path d="m192 103 3.1 7.9 7.9 3.1-7.9 3.1-3.1 7.9-3.1-7.9-7.9-3.1 7.9-3.1 3.1-7.9Z" fill="#88DDF7"/>
  <path d="m66 107 2.5 6.5 6.5 2.5-6.5 2.5-2.5 6.5-2.5-6.5-6.5-2.5 6.5-2.5 2.5-6.5Z" fill="#A9A5FF"/>
  <path d="M177 91c-34 2-60 21-75 51l21 21c31-15 50-41 54-72Z" fill="url(#rocket)" stroke="#65C9F5" stroke-width="3" stroke-linejoin="round"/>
  <path d="m104 139-22 3 16 17 25 2" fill="#377DE4" stroke="#75D9FA" stroke-width="3" stroke-linejoin="round"/>
  <path d="m126 161 2 25 18-17 1-21" fill="#377DE4" stroke="#75D9FA" stroke-width="3" stroke-linejoin="round"/>
  <circle cx="144" cy="124" r="11" fill="#2D77D5" stroke="#A9E7FB" stroke-width="3"/>
  <path d="M98 162c-15 2-27 15-29 32 17-2 30-13 33-28" fill="url(#flame)"/>
  <path d="m102 142 21 21" stroke="#316FAC" stroke-width="4" stroke-linecap="round"/>
</svg>
